<?xml version="1.0" encoding="UTF-8"?>
<svg id="Layer_1" data-name="Layer 1" xmlns="http://www.w3.org/2000/svg" version="1.1" viewBox="0 0 337.4 274.63">
  <defs>
    <style>
      .cls-1 {
        fill: #231f20;
      }

      .cls-1, .cls-2 {
        stroke-width: 0px;
      }

      .cls-2 {
        fill: #fff;
      }
    </style>
  </defs>
  <rect class="cls-1" width="337.4" height="274.63"/>
  <g>
    <path class="cls-2" d="M133.45,44.33c-.17,1.15-.39,3.45-.68,6.9-.29,3.45-.66,7.57-1.12,12.38-.46,4.8-.95,10.06-1.49,15.76-.54,5.71-1.08,11.48-1.61,17.31-.54,5.83-1.06,11.47-1.55,16.93-.5,5.46-.95,10.33-1.37,14.6-.42,4.27-.77,7.7-1.06,10.28-.29,2.59-.48,3.92-.56,4-.17.17-.83.29-1.99.37-1.16.08-2.61.16-4.35.25-1.74.08-3.62.14-5.65.18-2.03.04-3.96.06-5.78.06s-3.4-.04-4.72-.12c-1.33-.08-2.16-.17-2.48-.24-.5-.17-.87-.41-1.12-.74-1.82-3.86-3.52-7.82-5.09-11.89-1.57-4.06-3.15-8.13-4.72-12.19-1.57-4.06-3.19-8.09-4.84-12.07-1.66-3.98-3.4-7.82-5.22-11.51.33,6.98.78,13.85,1.37,20.63.58,6.77.99,13.65,1.24,20.63v1.72c0,.74-.04,1.46-.12,2.16-.08.7-.27,1.34-.56,1.91-.29.58-.73.9-1.3.99-2.57.49-5.38.64-8.45.43-3.06-.21-5.92-.27-8.57-.18-.67,0-1.45.02-2.36.06-.91.04-1.84,0-2.8-.12-.95-.12-1.82-.31-2.61-.55-.79-.25-1.39-.7-1.8-1.36-.17-.25-.33-1.42-.5-3.51-.17-2.09-.33-4.8-.5-8.13-.17-3.32-.33-7.1-.5-11.33-.17-4.23-.35-8.58-.56-13.05-.21-4.48-.42-8.95-.62-13.43-.21-4.47-.42-8.6-.62-12.38-.21-3.77-.41-7.08-.62-9.91-.21-2.83-.43-4.82-.68-5.97-.17-.66-.39-1.54-.68-2.65-.29-1.11-.19-1.95.31-2.52.16-.25.56-.47,1.18-.68s1.26-.39,1.92-.55c.66-.16,1.32-.31,1.99-.43.66-.12,1.16-.22,1.49-.31.83-.16,2.36-.53,4.6-1.11,2.23-.57,4.53-1.05,6.89-1.42,2.36-.37,4.51-.53,6.46-.49,1.94.04,3.08.55,3.41,1.54.08.17.12.37.12.62s.04.45.12.62c5.05,7.23,9.71,14.84,13.97,22.85,4.27,8.01,8.63,15.83,13.11,23.46-.67-6.9-1.12-13.77-1.37-20.63-.25-6.85-.54-13.73-.87-20.63-.17-2.38-.23-4.74-.19-7.08.04-2.34-.1-4.66-.43-6.96,0-.25-.04-.64-.12-1.17s-.08-1.05,0-1.54c.08-.49.23-.9.43-1.23.21-.33.6-.45,1.18-.37.75-.41,1.97-.8,3.67-1.17,1.7-.37,3.64-.7,5.84-.99,2.19-.29,4.49-.49,6.89-.62,2.4-.12,4.66-.12,6.77,0,2.11.12,3.96.35,5.53.68,1.57.33,2.65.78,3.23,1.36.33.33.54.74.62,1.23.08.49.04.95-.12,1.36Z"/>
    <path class="cls-2" d="M191.96,143.35c-.33.16-1.66.35-3.97.55-2.32.21-5.14.41-8.45.62s-6.94.41-10.87.62c-3.94.2-7.66.37-11.18.49s-6.62.18-9.32.18-4.49-.04-5.4-.12c-.99-.17-1.72-.58-2.17-1.23-.46-.66-.68-1.44-.68-2.34,0-1.89-.04-5.25-.12-10.1-.08-4.84-.15-10.36-.19-16.56-.04-6.2-.06-12.68-.06-19.46s.08-13.07.25-18.91c.17-5.83.43-10.79.81-14.9s.89-6.57,1.55-7.39c.5-.57,1.28-1.03,2.36-1.35.41-.08,1.86-.12,4.35-.12s5.49.02,9.01.06c3.52.04,7.29.12,11.3.24,4.02.12,7.8.25,11.36.37s6.65.25,9.25.37c2.61.12,4.2.23,4.78.31.58.08.99.35,1.24.8.25.45.37.99.37,1.6s-.06,1.25-.19,1.91-.23,1.19-.31,1.6c-.08.49-.17,1.58-.25,3.26-.08,1.68-.19,3.45-.31,5.3s-.31,3.53-.56,5.05c-.25,1.52-.54,2.36-.87,2.53-.42.25-1.06.39-1.92.43-.87.04-1.6.06-2.17.06-3.98.17-7.95.12-11.92-.12-3.98-.24-7.95-.41-11.93-.49-.25,1.72-.48,3.43-.68,5.11-.21,1.68-.39,3.39-.56,5.11,1.57-.08,3.54-.25,5.9-.49,2.36-.25,4.78-.47,7.27-.68s4.84-.35,7.08-.43c2.24-.08,4.06-.04,5.47.12,1.16.17,1.8.78,1.92,1.85.12,1.07.19,2.05.19,2.95,0,.66.04,1.93.12,3.82.08,1.89.12,3.84.12,5.85s-.02,3.88-.06,5.6c-.04,1.72-.19,2.75-.43,3.08-.42.66-1.92,1.11-4.53,1.35-2.61.25-5.51.39-8.7.43-3.19.04-6.23,0-9.13-.12-2.9-.12-4.85-.18-5.84-.18l.12,13.79c3.15,0,6.29-.04,9.44-.12,3.14-.08,6.29-.2,9.44-.37,1.07-.08,2.17-.21,3.29-.37,1.12-.16,2.22-.25,3.29-.25.66,0,1.12.08,1.37.25.25.17.5.54.75,1.11.25.49.41,1.66.5,3.51.08,1.85.14,3.82.19,5.91.04,2.09.02,4.09-.06,5.97-.08,1.89-.17,3.2-.25,3.94Z"/>
    <path class="cls-2" d="M249.1,103.33c-.25.66-.73,2.09-1.43,4.31-.71,2.22-1.55,4.82-2.55,7.82-.99,3-2.03,6.14-3.1,9.42-1.08,3.29-2.05,6.3-2.92,9.05-.87,2.75-1.92,5.93-3.17,9.54-.42.41-1.53.68-3.35.8-1.82.12-3.85.16-6.09.12-2.23-.04-4.37-.12-6.4-.25-2.03-.12-3.42-.18-4.16-.18h-2.73c-1.33,0-2.71-.02-4.16-.06-1.45-.04-2.78-.1-3.98-.18-1.2-.08-1.92-.17-2.17-.25-.99-.41-1.49-1.15-1.49-2.22s.04-2.05.12-2.96c2.32-27.17,4.93-54.39,7.83-81.65,0-.57.16-1.03.5-1.35.25-.25,1.28-.41,3.11-.49,1.82-.08,3.85-.08,6.09,0,2.23.08,4.37.17,6.4.25,2.03.08,3.37.12,4.04.12.41,0,.93-.02,1.55-.06.62-.04,1.22-.04,1.8,0,.58.04,1.1.18,1.55.43.46.24.77.62.93,1.11.08.49.04,1.77-.12,3.82-.17,2.05-.42,4.56-.74,7.51-.33,2.96-.73,6.12-1.18,9.48-.46,3.37-.89,6.59-1.3,9.67-.42,3.08-.79,5.81-1.12,8.19-.33,2.38-.54,4.02-.62,4.93.25-.65.62-1.76,1.12-3.32.5-1.56,1.1-3.32,1.8-5.29.7-1.97,1.47-4.02,2.3-6.16.83-2.13,1.63-4.11,2.42-5.91.79-1.81,1.55-3.33,2.3-4.56.74-1.23,1.37-1.93,1.86-2.09.08,0,.89-.02,2.42-.06,1.53-.04,3.27-.08,5.22-.12,1.94-.04,3.77-.06,5.46-.06h3.29c.41,0,.79.02,1.12.06.33.04.66.14.99.31.25.08.64.88,1.18,2.4.54,1.52,1.14,3.37,1.8,5.54.66,2.18,1.39,4.58,2.17,7.21.79,2.63,1.51,5.13,2.17,7.51.66,2.38,1.24,4.48,1.74,6.28.5,1.81.83,3.04.99,3.7-.25-5.75-.6-11.45-1.06-17.12-.46-5.66-.89-11.37-1.3-17.12-.17-2.46-.39-4.99-.68-7.57-.29-2.59-.43-5.07-.43-7.45,0-.99.43-1.52,1.3-1.6.87-.08,1.68-.12,2.42-.12,3.64,0,7.33.18,11.05.55,3.73.37,7.37.27,10.93-.31.41-.08,1.02-.24,1.8-.49.78-.25,1.34-.29,1.68-.12.66.17,1.08.74,1.24,1.72.16.99.29,1.77.37,2.34.08.99.12,2.94.12,5.85s-.02,6.43-.06,10.53c-.04,4.11-.11,8.62-.19,13.55-.08,4.93-.19,9.87-.31,14.84-.12,4.97-.25,9.81-.37,14.53s-.25,8.93-.37,12.62c-.12,3.7-.27,6.67-.43,8.93s-.29,3.47-.37,3.63c-.17.16-1.06.31-2.67.43-1.61.12-3.6.2-5.96.25-2.36.04-4.93.06-7.7.06s-5.4-.02-7.89-.06c-2.48-.04-4.66-.1-6.52-.19s-3.09-.17-3.66-.24c-.99-.08-1.78-.49-2.36-1.23-.33-.33-.74-1.4-1.24-3.2-.5-1.81-1.08-3.96-1.74-6.47-.67-2.5-1.33-5.24-1.99-8.19-.66-2.96-1.33-5.79-1.99-8.5s-1.26-5.17-1.8-7.39c-.54-2.22-.98-3.82-1.3-4.8Z"/>
  </g>
  <g>
    <path class="cls-2" d="M44.64,191.69c.06,1.08.31,2,.75,2.75.44.76,1.1,1.3,1.98,1.62.88.32,2.03.25,3.44-.22.71-.23,1.28-.68,1.72-1.35.44-.67.79-1.43,1.06-2.27.26-.84.44-1.7.53-2.58.09-.87.16-1.63.22-2.27.18-2.1.29-4.57.35-7.43.06-2.85.09-5.81.09-8.87s-.04-6.03-.13-8.92c-.09-2.88-.19-5.37-.31-7.47-.12-.93-.06-1.72.18-2.36.18-.52.56-.89,1.15-1.09s1.26-.32,2.03-.35c.76-.03,1.51-.03,2.25,0,.73.03,1.34.04,1.81.04.59,0,1.48-.07,2.69-.22,1.21-.14,2.44-.25,3.7-.31,1.26-.06,2.44-.03,3.53.09,1.09.12,1.78.41,2.07.87.18.29.31,1.22.4,2.8.09,1.57.15,3.48.17,5.72.03,2.24.03,4.68,0,7.3-.03,2.62-.06,5.11-.09,7.47-.03,2.36-.07,4.43-.13,6.21-.06,1.78-.09,2.99-.09,3.63-.06,3.15-.25,6.32-.57,9.53-.32,3.21-1.03,6.21-2.12,9-1.09,2.8-2.69,5.26-4.8,7.38-2.12,2.13-5,3.63-8.64,4.5-3.23.81-6.57,1.12-10,.92-3.44-.2-6.72-.92-9.83-2.14-2.35-.93-4.38-2.27-6.08-4.02-1.71-1.75-3-3.71-3.88-5.9-.88-2.19-1.34-4.5-1.37-6.95-.03-2.45.43-4.84,1.37-7.17.18-.41.34-.67.49-.79.15-.12.45-.2.93-.26.18,0,.66-.01,1.45-.04s1.75-.06,2.86-.09c1.12-.03,2.31-.06,3.57-.09,1.26-.03,2.42-.06,3.48-.09,1.06-.03,1.95-.04,2.69-.04h1.19l.09.18c-.18,1.11-.24,2.2-.18,3.28Z"/>
    <path class="cls-2" d="M111.81,210.44c-1.35.29-2.75.44-4.19.44s-2.86-.06-4.28-.18c-5.29-.52-9.7-2.02-13.22-4.5-3.53-2.47-6.23-5.52-8.11-9.13-1.88-3.61-3.01-7.56-3.39-11.84-.38-4.28-.1-8.48.84-12.59.94-4.11,2.5-7.91,4.67-11.41,2.17-3.5,4.88-6.29,8.11-8.39,1.29-.82,2.65-1.46,4.05-1.92,1.41-.47,2.85-.9,4.32-1.31,3.53-.93,6.89-1.06,10.09-.39,3.2.67,6.39,1.82,9.56,3.45,2.41,1.22,4.45,2.81,6.13,4.76,1.67,1.95,3.01,4.12,4.01,6.51,1,2.39,1.7,4.94,2.12,7.65.41,2.71.57,5.42.48,8.13-.09,2.71-.38,5.38-.88,8-.5,2.62-1.13,5.04-1.89,7.25-.59,1.69-1.56,3.38-2.91,5.07-1.35,1.69-2.88,3.23-4.58,4.63-1.7,1.4-3.51,2.61-5.42,3.63-1.91,1.02-3.75,1.74-5.51,2.14ZM98.23,186.31c.7,2.04,1.86,3.6,3.48,4.68,1.61,1.08,3.29,1.55,5.02,1.4,1.73-.14,3.36-.95,4.89-2.4,1.53-1.45,2.59-3.67,3.17-6.64.29-1.57.41-3.18.35-4.81-.06-1.63-.41-3.2-1.06-4.72-.88-2.04-2.01-3.51-3.39-4.41-1.38-.9-2.81-1.31-4.27-1.22-1.47.09-2.9.6-4.28,1.53-1.38.93-2.53,2.2-3.44,3.8-.91,1.6-1.45,3.49-1.63,5.68-.18,2.18.21,4.56,1.15,7.12Z"/>
    <path class="cls-2" d="M157.56,212.88c-.06.12-.17.29-.35.52s-.35.35-.53.35h-7.14c-2.35,0-4.73.06-7.14.18-.18,0-.47.03-.88.09s-.81.09-1.19.09-.74-.03-1.06-.09c-.32-.06-.52-.23-.57-.52-.06-.12-.12-.82-.18-2.1-.06-1.28-.12-2.88-.18-4.81-.06-1.92-.12-4.01-.18-6.25-.06-2.24-.1-4.38-.13-6.42-.03-2.04-.04-3.83-.04-5.37v-3.02c0-.82.01-2.23.04-4.24.03-2.01.06-4.3.09-6.86.03-2.56.04-5.24.04-8.04s-.02-5.4-.04-7.82c-.03-2.42-.07-4.49-.13-6.21-.06-1.72-.15-2.78-.26-3.19.18-.52.56-.79,1.15-.79h14.5c1.32,0,2.42.01,3.31.04.88.03,1.35.04,1.41.04.35.18.59.5.7.96,0,.06-.02.7-.04,1.92-.03,1.22-.09,2.75-.18,4.59-.09,1.84-.18,3.85-.27,6.03-.09,2.19-.17,4.25-.26,6.21-.09,1.95-.18,3.67-.26,5.16-.09,1.49-.13,2.43-.13,2.84,3.41-4.55,6.62-9.21,9.65-13.98,3.03-4.78,6.16-9.5,9.39-14.16.29-.47.68-.67,1.15-.61.7.12,1.79.6,3.26,1.44,1.47.85,2.95,1.85,4.45,3.02,1.5,1.17,2.82,2.36,3.97,3.58,1.15,1.22,1.72,2.21,1.72,2.97.06.29-.29.92-1.06,1.88-.76.96-1.73,2.13-2.91,3.5-1.18,1.37-2.5,2.83-3.97,4.37-1.47,1.55-2.86,3.02-4.19,4.41-1.32,1.4-2.53,2.64-3.61,3.71-1.09,1.08-1.84,1.82-2.25,2.23,2.23,4.02,4.92,8.06,8.07,12.11,3.14,4.05,6.45,7.62,9.92,10.71.12.35.17.64.17.87,0,.06-.5.49-1.5,1.31-1,.82-2.13,1.73-3.39,2.75-1.27,1.02-2.47,1.98-3.62,2.88-1.15.9-1.87,1.47-2.16,1.7-.12.12-.38.34-.79.66-.41.32-.85.61-1.32.87-.47.26-.88.41-1.23.44-.35.03-.56-.22-.62-.74-1.41-1.4-2.91-3.02-4.5-4.85-1.59-1.83-3.11-3.74-4.58-5.72-1.47-1.98-2.84-3.98-4.1-5.99-1.27-2.01-2.31-3.95-3.13-5.81-.59.58-1.16,1.17-1.72,1.75-.56.58-1.16,1.17-1.81,1.75-.23,3.15-.29,6.44-.17,9.88.12,3.44.38,6.7.79,9.79Z"/>
    <path class="cls-2" d="M232.66,212.71c-.23.12-1.18.25-2.82.39-1.65.15-3.64.29-6,.44-2.35.14-4.92.29-7.71.44-2.79.14-5.44.26-7.93.35-2.5.09-4.7.13-6.61.13s-3.19-.03-3.84-.09c-.7-.12-1.22-.41-1.54-.87-.32-.47-.49-1.02-.49-1.66,0-1.34-.03-3.73-.09-7.17-.06-3.44-.1-7.36-.13-11.76-.03-4.4-.04-9-.04-13.81s.06-9.28.17-13.41c.12-4.14.31-7.66.57-10.58.26-2.91.63-4.66,1.1-5.24.35-.41.91-.73,1.67-.96.29-.06,1.32-.09,3.09-.09s3.89.01,6.39.04c2.5.03,5.17.09,8.02.18,2.85.09,5.54.18,8.07.26,2.53.09,4.72.18,6.57.26,1.85.09,2.98.16,3.39.22.41.06.71.25.88.57.18.32.27.7.27,1.14s-.04.89-.13,1.35c-.09.47-.16.84-.22,1.14-.06.35-.12,1.12-.18,2.32-.06,1.19-.13,2.45-.22,3.76-.09,1.31-.22,2.51-.4,3.58-.18,1.08-.38,1.68-.62,1.79-.29.18-.75.28-1.37.31-.62.03-1.13.04-1.54.04-2.82.12-5.64.09-8.46-.09-2.82-.18-5.64-.29-8.46-.35-.18,1.22-.34,2.43-.49,3.63-.15,1.19-.28,2.4-.4,3.63,1.12-.06,2.51-.18,4.19-.35,1.67-.18,3.39-.33,5.16-.48,1.76-.14,3.44-.25,5.02-.31,1.59-.06,2.88-.03,3.88.09.82.12,1.28.55,1.37,1.31.09.76.13,1.46.13,2.1,0,.47.03,1.37.09,2.71.06,1.34.09,2.72.09,4.15s-.02,2.75-.04,3.98c-.03,1.22-.13,1.95-.31,2.18-.29.47-1.37.79-3.22.96s-3.91.28-6.17.31c-2.26.03-4.42,0-6.48-.09-2.06-.09-3.44-.13-4.14-.13l.09,9.79c2.23,0,4.47-.03,6.7-.09,2.23-.06,4.47-.14,6.7-.26.76-.06,1.54-.14,2.33-.26.79-.12,1.57-.18,2.34-.18.47,0,.79.06.97.18.17.12.35.38.53.79.18.35.29,1.18.35,2.49.06,1.31.1,2.71.13,4.19.03,1.49.01,2.9-.04,4.24-.06,1.34-.12,2.27-.18,2.8Z"/>
  </g>
  <g>
    <path class="cls-2" d="M254.88,192.01c-.34.06-.96.09-1.86.09s-1.82-.01-2.78-.05c-.96-.03-1.85-.09-2.66-.18-.81-.09-1.34-.22-1.6-.4-.43-.3-.79-1.45-1.09-3.45-.3-2-.54-4.47-.74-7.4-.19-2.93-.32-6.08-.38-9.46-.06-3.38-.1-6.57-.1-9.59s.03-5.66.1-7.94c.06-2.27.16-3.77.29-4.48.08-.54.27-.91.54-1.12.28-.21.6-.33.96-.36.36-.03.73-.01,1.09.05.36.06.69.12.99.18.43.06,1.23.13,2.4.22,1.17.09,2.39.22,3.65.4,1.26.18,2.39.42,3.39.72,1,.3,1.57.72,1.7,1.26.08.42.11,1,.06,1.75-.04.75-.1,1.54-.16,2.38-.06.84-.15,1.64-.26,2.42s-.18,1.4-.22,1.88c-.47,4.72-.79,9.43-.96,14.12-.17,4.69-.36,9.4-.58,14.12-.04.54-.1,1.29-.16,2.24-.06.96-.25,1.65-.54,2.06-.17.24-.34.37-.51.4s-.36.07-.58.13ZM248.93,214.06c-.43.06-.85.06-1.28,0-.43-.06-.81-.24-1.15-.54-.3-.24-.57-.91-.8-2.02-.23-1.1-.43-2.3-.58-3.59-.15-1.28-.25-2.51-.29-3.68s0-1.99.13-2.47c.21-.9.65-1.42,1.31-1.57.66-.15,1.27-.34,1.82-.58.38-.18.86-.39,1.44-.63s1.18-.46,1.82-.67c.64-.21,1.25-.33,1.82-.36.58-.03,1.03.11,1.38.4.3.3.52.63.67.99.15.36.29.78.42,1.26.68,2.69,1.08,4.86,1.18,6.5.11,1.65-.1,2.93-.61,3.86-.51.93-1.37,1.61-2.56,2.06-1.2.45-2.77.79-4.74,1.03Z"/>
    <path class="cls-2" d="M274.47,192.01c-.34.06-.96.09-1.86.09s-1.82-.01-2.78-.05c-.96-.03-1.85-.09-2.66-.18-.81-.09-1.34-.22-1.6-.4-.43-.3-.79-1.45-1.09-3.45-.3-2-.54-4.47-.74-7.4-.19-2.93-.32-6.08-.38-9.46-.06-3.38-.1-6.57-.1-9.59s.03-5.66.1-7.94c.06-2.27.16-3.77.29-4.48.08-.54.27-.91.54-1.12.28-.21.6-.33.96-.36.36-.03.73-.01,1.09.05.36.06.69.12.99.18.43.06,1.23.13,2.4.22,1.17.09,2.39.22,3.65.4,1.26.18,2.39.42,3.39.72,1,.3,1.57.72,1.7,1.26.08.42.11,1,.06,1.75-.04.75-.1,1.54-.16,2.38-.06.84-.15,1.64-.26,2.42s-.18,1.4-.22,1.88c-.47,4.72-.79,9.43-.96,14.12-.17,4.69-.36,9.4-.58,14.12-.04.54-.1,1.29-.16,2.24-.06.96-.25,1.65-.54,2.06-.17.24-.34.37-.51.4s-.36.07-.58.13ZM268.52,214.06c-.43.06-.85.06-1.28,0-.43-.06-.81-.24-1.15-.54-.3-.24-.57-.91-.8-2.02-.23-1.1-.43-2.3-.58-3.59-.15-1.28-.25-2.51-.29-3.68s0-1.99.13-2.47c.21-.9.65-1.42,1.31-1.57.66-.15,1.27-.34,1.82-.58.38-.18.86-.39,1.44-.63s1.18-.46,1.82-.67c.64-.21,1.25-.33,1.82-.36.58-.03,1.03.11,1.38.4.3.3.52.63.67.99.15.36.29.78.42,1.26.68,2.69,1.08,4.86,1.18,6.5.11,1.65-.1,2.93-.61,3.86-.51.93-1.37,1.61-2.56,2.06-1.2.45-2.77.79-4.74,1.03Z"/>
    <path class="cls-2" d="M294.05,192.01c-.34.06-.96.09-1.86.09s-1.82-.01-2.78-.05c-.96-.03-1.85-.09-2.66-.18-.81-.09-1.34-.22-1.6-.4-.43-.3-.79-1.45-1.09-3.45-.3-2-.54-4.47-.74-7.4-.19-2.93-.32-6.08-.38-9.46-.06-3.38-.1-6.57-.1-9.59s.03-5.66.1-7.94c.06-2.27.16-3.77.29-4.48.08-.54.27-.91.54-1.12.28-.21.6-.33.96-.36.36-.03.73-.01,1.09.05.36.06.69.12.99.18.43.06,1.23.13,2.4.22,1.17.09,2.39.22,3.65.4,1.26.18,2.39.42,3.39.72,1,.3,1.57.72,1.7,1.26.08.42.11,1,.06,1.75-.04.75-.1,1.54-.16,2.38-.06.84-.15,1.64-.26,2.42s-.18,1.4-.22,1.88c-.47,4.72-.79,9.43-.96,14.12-.17,4.69-.36,9.4-.58,14.12-.04.54-.1,1.29-.16,2.24-.06.96-.25,1.65-.54,2.06-.17.24-.34.37-.51.4s-.36.07-.58.13ZM288.1,214.06c-.43.06-.85.06-1.28,0-.43-.06-.81-.24-1.15-.54-.3-.24-.57-.91-.8-2.02-.23-1.1-.43-2.3-.58-3.59-.15-1.28-.25-2.51-.29-3.68s0-1.99.13-2.47c.21-.9.65-1.42,1.31-1.57.66-.15,1.27-.34,1.82-.58.38-.18.86-.39,1.44-.63s1.18-.46,1.82-.67c.64-.21,1.25-.33,1.82-.36.58-.03,1.03.11,1.38.4.3.3.52.63.67.99.15.36.29.78.42,1.26.68,2.69,1.08,4.86,1.18,6.5.11,1.65-.1,2.93-.61,3.86-.51.93-1.37,1.61-2.56,2.06-1.2.45-2.77.79-4.74,1.03Z"/>
  </g>
</svg>